{"title":"Bringing Up Bates - s02e02 - Future Inlaws - HDTV 720p","uid":12043723,"size":804976680,"categoryP":"video","categoryS":"tv_shows","magnet":"?xt=urn:btih:a79f3203ca4c1946345215cf4ca89936288a633a&amp;dn=Bringing+Up+Bates+-+s02e02+-+Future+Inlaws+-+HDTV+720p&amp;tr=udp%3A%2F%2Ftracker.openbittorrent.com%3A80&amp;tr=udp%3A%2F%2Fopen.demonii.com%3A1337&amp;tr=udp%3A%2F%2Ftracker.coppersurfer.tk%3A6969&amp;tr=udp%3A%2F%2Fexodus.desync.com%3A6969","seeders":0,"leechers":0,"uploader":null,"files":14,"time":1434837712,"description":"Gil and Kelly Jo Bates live in the picturesque hills of Tennessee, and life is never boring. That's because Gil and Kelly Jo are parents to 19 children who fill their life with joy and fulfill their belief that family is the key to happiness. This real-life series welcomes viewers into the Bates household.\n\nGeneral\nComplete name                            : Bringing Up BatesSeason 2Bringing Up Bates - s02e02 - Future In Laws.mp4\nFormat                                   : MPEG-4\nFormat profile                           : Base Media / Version 2\nCodec ID                                 : mp42\nFile size                                : 593 MiB\nDuration                                 : 22mn 25s\nOverall bit rate mode                    : Variable\nOverall bit rate                         : 3 700 Kbps\nEncoded date                             : UTC 2015-06-12 05:17:34\nTagged date                              : UTC 2015-06-12 05:17:34\nÂ©TIM                                     : 00;00;00;00\nÂ©TSC                                     : 30000\nÂ©TSZ                                     : 1001\n\nVideo\nID                                       : 1\nFormat                                   : AVC\nFormat/Info                              : Advanced Video Codec\nFormat profile                           : &lt;a class=&quot;__cf_email__&quot; href=&quot;/cdn-cgi/l/email-protection&quot; data-cfemail=&quot;430e222a2d030f776d71&quot;&gt;[email&amp;#160;protected]&lt;/a&gt;&lt;script data-cfhash='f9e31' type=&quot;text/javascript&quot;&gt;\n/* &lt;![CDATA[ */!function(){try{var t=&quot;currentScript&quot;in document?document.currentScript:function(){for(var t=document.getElementsByTagName(&quot;script&quot;),e=t.length;e--;)if(t[e].getAttribute(&quot;data-cfhash&quot;))return t[e]}();if(t&amp;&amp;t.previousSibling){var e,r,n,i,c=t.previousSibling,a=c.getAttribute(&quot;data-cfemail&quot;);if(a){for(e=&quot;&quot;,r=parseInt(a.substr(0,2),16),n=2;a.length-n;n+=2)i=parseInt(a.substr(n,2),16)^r,e+=String.fromCharCode(i);e=document.createTextNode(e),c.parentNode.replaceChild(e,c)}t.parentNode.removeChild(t);}}catch(u){}}()/* ]]&gt; */&lt;/script&gt;\nFormat settings, CABAC                   : Yes\nFormat settings, ReFrames                : 3 frames\nCodec ID                                 : avc1\nCodec ID/Info                            : Advanced Video Coding\nDuration                                 : 22mn 25s\nBit rate                                 : 3 442 Kbps\nWidth                                    : 1 280 pixels\nHeight                                   : 720 pixels\nDisplay aspect ratio                     : 16:9\nFrame rate mode                          : Constant\nFrame rate                               : 29.970 fps\nStandard                                 : NTSC\nColor space                              : YUV\nChroma subsampling                       : 4:2:0\nBit depth                                : 8 bits\nScan type                                : Progressive\nBits/(Pixel*Frame)                       : 0.125\nStream size                              : 552 MiB (93%)\nLanguage                                 : English\nEncoded date                             : UTC 2015-06-12 05:17:34\nTagged date                              : UTC 2015-06-12 05:17:34\nColor range                              : Limited\n\nAudio\nID                                       : 2\nFormat                                   : AAC\nFormat/Info                              : Advanced Audio Codec\nFormat profile                           : LC\nCodec ID                                 : 40\nDuration                                 : 22mn 25s\nSource duration                          : 22mn 25s\nBit rate mode                            : Variable\nBit rate                                 : 253 Kbps\nMaximum bit rate                         : 318 Kbps\nChannel(s)                               : 2 channels\nChannel positions                        : Front: L R\nSampling rate                            : 48.0 KHz\nCompression mode                         : Lossy\nStream size                              : 40.6 MiB (7%)\nSource stream size                       : 40.6 MiB (7%)\nLanguage                                 : English\nEncoded date                             : UTC 2015-06-12 05:17:34\nTagged date                              : UTC 2015-06-12 05:17:34","torrent":{"xt":"urn:btih:a79f3203ca4c1946345215cf4ca89936288a633a","amp;dn":"Bringing+Up+Bates+-+s02e02+-+Future+Inlaws+-+HDTV+720p","amp;tr":["udp%3A%2F%2Ftracker.openbittorrent.com%3A80","udp%3A%2F%2Fopen.demonii.com%3A1337","udp%3A%2F%2Ftracker.coppersurfer.tk%3A6969","udp%3A%2F%2Fexodus.desync.com%3A6969"],"infoHash":"a79f3203ca4c1946345215cf4ca89936288a633a","infoHashBuffer":{"type":"Buffer","data":[167,159,50,3,202,76,25,70,52,82,21,207,76,168,153,54,40,138,99,58]},"announce":[],"urlList":[]}}